<svg viewBox="0 0 200 200" xmlns="http://www.w3.org/2000/svg">
  <defs>
    <!-- Gold gradient -->
    <linearGradient id="goldGradient" x1="0%" y1="0%" x2="100%" y2="100%">
      <stop offset="0%" style="stop-color:#FFD700;stop-opacity:1" />
      <stop offset="25%" style="stop-color:#FFA500;stop-opacity:1" />
      <stop offset="50%" style="stop-color:#FFD700;stop-opacity:1" />
      <stop offset="75%" style="stop-color:#DAA520;stop-opacity:1" />
      <stop offset="100%" style="stop-color:#B8860B;stop-opacity:1" />
    </linearGradient>
    
    <!-- Lighter gold for highlights -->
    <linearGradient id="goldHighlight" x1="0%" y1="0%" x2="100%" y2="100%">
      <stop offset="0%" style="stop-color:#FFFF99;stop-opacity:1" />
      <stop offset="50%" style="stop-color:#FFD700;stop-opacity:1" />
      <stop offset="100%" style="stop-color:#FFA500;stop-opacity:1" />
    </linearGradient>
  </defs>
  
  <!-- Outer hexagon points -->
  <g stroke="url(#goldGradient)" stroke-width="2" fill="none">
    <!-- Hexagon vertices -->
    <circle cx="100" cy="30" r="3" fill="url(#goldHighlight)" />
    <circle cx="150" cy="65" r="3" fill="url(#goldHighlight)" />
    <circle cx="150" cy="135" r="3" fill="url(#goldHighlight)" />
    <circle cx="100" cy="170" r="3" fill="url(#goldHighlight)" />
    <circle cx="50" cy="135" r="3" fill="url(#goldHighlight)" />
    <circle cx="50" cy="65" r="3" fill="url(#goldHighlight)" />
    
    <!-- Inner hexagon points -->
    <circle cx="125" cy="47.5" r="2.5" fill="url(#goldHighlight)" />
    <circle cx="137.5" cy="75" r="2.5" fill="url(#goldHighlight)" />
    <circle cx="137.5" cy="125" r="2.5" fill="url(#goldHighlight)" />
    <circle cx="125" cy="152.5" r="2.5" fill="url(#goldHighlight)" />
    <circle cx="75" cy="152.5" r="2.5" fill="url(#goldHighlight)" />
    <circle cx="62.5" cy="125" r="2.5" fill="url(#goldHighlight)" />
    <circle cx="62.5" cy="75" r="2.5" fill="url(#goldHighlight)" />
    <circle cx="75" cy="47.5" r="2.5" fill="url(#goldHighlight)" />
    
    <!-- Center point -->
    <circle cx="100" cy="100" r="4" fill="url(#goldHighlight)" />
  </g>
  
  <!-- Main structure lines -->
  <g stroke="url(#goldGradient)" stroke-width="1.5" fill="none">
    <!-- Outer hexagon -->
    <polygon points="100,30 150,65 150,135 100,170 50,135 50,65" />
    
    <!-- Inner connecting lines forming the cube pattern -->
    <!-- Star of David pattern -->
    <polygon points="100,30 150,135 50,65 150,65 50,135 100,170" />
    
    <!-- Vertical and horizontal lines through center -->
    <line x1="100" y1="30" x2="100" y2="170" />
    <line x1="50" y1="65" x2="150" y2="135" />
    <line x1="50" y1="135" x2="150" y2="65" />
    
    <!-- Inner hexagon -->
    <polygon points="125,47.5 137.5,75 137.5,125 125,152.5 75,152.5 62.5,125 62.5,75 75,47.5" />
    
    <!-- Connecting lines from center to all vertices -->
    <line x1="100" y1="100" x2="100" y2="30" />
    <line x1="100" y1="100" x2="150" y2="65" />
    <line x1="100" y1="100" x2="150" y2="135" />
    <line x1="100" y1="100" x2="100" y2="170" />
    <line x1="100" y1="100" x2="50" y2="135" />
    <line x1="100" y1="100" x2="50" y2="65" />
    
    <!-- Inner connections -->
    <line x1="100" y1="100" x2="125" y2="47.5" />
    <line x1="100" y1="100" x2="137.5" y2="75" />
    <line x1="100" y1="100" x2="137.5" y2="125" />
    <line x1="100" y1="100" x2="125" y2="152.5" />
    <line x1="100" y1="100" x2="75" y2="152.5" />
    <line x1="100" y1="100" x2="62.5" y2="125" />
    <line x1="100" y1="100" x2="62.5" y2="75" />
    <line x1="100" y1="100" x2="75" y2="47.5" />
    
    <!-- Platonic solid connections -->
    <line x1="125" y1="47.5" x2="137.5" y2="75" />
    <line x1="137.5" y1="75" x2="137.5" y2="125" />
    <line x1="137.5" y1="125" x2="125" y2="152.5" />
    <line x1="125" y1="152.5" x2="75" y2="152.5" />
    <line x1="75" y1="152.5" x2="62.5" y2="125" />
    <line x1="62.5" y1="125" x2="62.5" y2="75" />
    <line x1="62.5" y1="75" x2="75" y2="47.5" />
    <line x1="75" y1="47.5" x2="125" y2="47.5" />
  </g>
  
  <!-- Subtle glow effect -->
  <g stroke="url(#goldGradient)" stroke-width="0.5" fill="none" opacity="0.3">
    <polygon points="100,30 150,65 150,135 100,170 50,135 50,65" />
    <polygon points="100,30 150,135 50,65 150,65 50,135 100,170" />
  </g>
</svg>